# xmcd
#
# Track frame offsets: 
#        150
#        30750
#        81976
#        107310
#        140641
#        192441
#        237504
#        264205
#
# Disc length: 3905 seconds
#
# Revision: 1
# Processed by: cddbd v1.5.2PL0 Copyright (c) Steve Scherf et al.
# Submitted via: ExactAudioCopy v0.95b4
#
DISCID=5f0f3f08
DTITLE=Eric Clapton - Civic Centre - Providence, Rhode Island July 10t
DTITLE=h 1974
DYEAR=1974
DGENRE=Blues
TTITLE0=Have you ever loved a woman
TTITLE1=Blues Power
TTITLE2=Key to the highway
TTITLE3=Bright Lights Big City - I can't hold out
TTITLE4=Willie and the handjive - Get Ready
TTITLE5=Little Wing
TTITLE6=Layla
TTITLE7=Little Queenie
EXTD=
EXTT0=
EXTT1=
EXTT2=
EXTT3=
EXTT4=
EXTT5=
EXTT6=
EXTT7=
PLAYORDER=
